<svg height="120" width="120" xmlns="http://www.w3.org/2000/svg">
<line stroke="black" x1="70" x2="80" y1="70" y2="60"/>
<circle cx="70" cy="70" fill="red" r="3"/>
<circle cx="80" cy="60" fill="red" r="3"/>
<line stroke="black" x1="70" x2="60" y1="70" y2="90"/>
<circle cx="70" cy="70" fill="red" r="3"/>
<circle cx="60" cy="90" fill="red" r="3"/>
<line stroke="black" x1="80" x2="70" y1="60" y2="40"/>
<circle cx="80" cy="60" fill="red" r="3"/>
<circle cx="70" cy="40" fill="red" r="3"/>
<line stroke="black" x1="40" x2="60" y1="80" y2="90"/>
<circle cx="40" cy="80" fill="red" r="3"/>
<circle cx="60" cy="90" fill="red" r="3"/>
<line stroke="black" x1="40" x2="20" y1="80" y2="90"/>
<circle cx="40" cy="80" fill="red" r="3"/>
<circle cx="20" cy="90" fill="red" r="3"/>
<line stroke="black" x1="10" x2="20" y1="70" y2="90"/>
<circle cx="10" cy="70" fill="red" r="3"/>
<circle cx="20" cy="90" fill="red" r="3"/>
<line stroke="black" x1="60" x2="80" y1="90" y2="100"/>
<circle cx="60" cy="90" fill="red" r="3"/>
<circle cx="80" cy="100" fill="red" r="3"/>
<line stroke="black" x1="100" x2="70" y1="30" y2="40"/>
<circle cx="100" cy="30" fill="red" r="3"/>
<circle cx="70" cy="40" fill="red" r="3"/>
<line stroke="black" x1="30" x2="70" y1="10" y2="40"/>
<circle cx="30" cy="10" fill="red" r="3"/>
<circle cx="70" cy="40" fill="red" r="3"/>
</svg>